<svg width="50" height="50" viewBox="0 0 50 50" fill="none" xmlns="http://www.w3.org/2000/svg">
  <path d="M25 50C38.8071 50 50 38.8071 50 25C50 11.1929 38.8071 0 25 0C11.1929 0 0 11.1929 0 25C0 38.8071 11.1929 50 25 50Z" fill="#F2F5FA" />
  <path fill-rule="evenodd" clip-rule="evenodd" d="M21.0469 37.65C25.85 37.65 29.7437 33.7563 29.7437 28.9531C29.7437 24.15 25.85 20.2562 21.0469 20.2562C16.2437 20.2562 12.35 24.15 12.35 28.9531C12.35 33.7563 16.2437 37.65 21.0469 37.65ZM21.0469 40.8125C27.5966 40.8125 32.9062 35.5029 32.9062 28.9531C32.9062 22.4034 27.5966 17.0938 21.0469 17.0938C14.4971 17.0938 9.1875 22.4034 9.1875 28.9531C9.1875 35.5029 14.4971 40.8125 21.0469 40.8125Z" fill="#FBCC5C" />
  <path fill-rule="evenodd" clip-rule="evenodd" d="M28.9531 29.7437C33.7563 29.7437 37.65 25.85 37.65 21.0469C37.65 16.2437 33.7563 12.35 28.9531 12.35C24.15 12.35 20.2562 16.2437 20.2562 21.0469C20.2562 25.85 24.15 29.7437 28.9531 29.7437ZM28.9531 32.9062C35.5029 32.9062 40.8125 27.5966 40.8125 21.0469C40.8125 14.4971 35.5029 9.1875 28.9531 9.1875C22.4034 9.1875 17.0938 14.4971 17.0938 21.0469C17.0938 27.5966 22.4034 32.9062 28.9531 32.9062Z" fill="#35D07F" fill-opacity="0.85" />
</svg>
