<svg width="50" height="50" viewBox="0 0 50 50" fill="none" xmlns="http://www.w3.org/2000/svg">
  <circle cx="25" cy="25" r="25" fill="#F2F5FA" />
  <g clip-path="url(#clip0_2492_25544)">
    <path d="M33.7422 11.977L27.6885 20.9708C27.2699 21.5833 28.0749 22.3247 28.6545 21.809L34.6116 16.619C34.7726 16.49 34.998 16.5867 34.998 16.8124V33.0271C34.998 33.2527 34.7082 33.3494 34.5794 33.1882L16.5473 11.5902C15.9677 10.881 15.1305 10.4941 14.1967 10.4941H13.5527C11.8783 10.4941 10.4937 11.8803 10.4937 13.5888V36.4118C10.4937 38.1203 11.8783 39.5065 13.5849 39.5065C14.6475 39.5065 15.6457 38.9585 16.2253 38.0236L22.2789 29.0298C22.6975 28.4173 21.8925 27.6759 21.3129 28.1917L15.3559 33.3494C15.1949 33.4784 14.9695 33.3817 14.9695 33.156V16.9736C14.9695 16.7479 15.2593 16.6512 15.3881 16.8124L33.4202 38.4105C33.9998 39.1197 34.8692 39.5065 35.7708 39.5065H36.4148C38.1214 39.5065 39.506 38.1203 39.506 36.4118V13.5888C39.506 11.8803 38.1214 10.4941 36.4148 10.4941C35.32 10.4941 34.3218 11.0422 33.7422 11.977Z" fill="black" />
  </g>
  <defs>
    <clipPath id="clip0_2492_25544">
      <rect width="29.0123" height="29.0123" fill="white" transform="translate(10.4937 10.4941)" />
    </clipPath>
  </defs>
</svg>
