<svg width="50" height="50" viewBox="0 0 50 50" fill="none" xmlns="http://www.w3.org/2000/svg">
  <path d="M25 50C38.8071 50 50 38.8071 50 25C50 11.1929 38.8071 0 25 0C11.1929 0 0 11.1929 0 25C0 38.8071 11.1929 50 25 50Z" fill="#7950DD"/>
  <path d="M32.9376 19.7208C32.3735 19.3985 31.6483 19.3985 31.0036 19.7208L26.4908 22.3805L23.4286 24.073L18.9964 26.7326C18.4323 27.055 17.707 27.055 17.0623 26.7326L13.5971 24.6371C13.033 24.3147 12.6301 23.67 12.6301 22.9446V18.9149C12.6301 18.2701 12.9525 17.6254 13.5971 17.2224L17.0623 15.2075C17.6264 14.8851 18.3517 14.8851 18.9964 15.2075L22.4615 17.303C23.0256 17.6254 23.4286 18.2701 23.4286 18.9955V21.6551L26.4908 19.882V17.1418C26.4908 16.497 26.1685 15.8523 25.5238 15.4493L19.0769 11.6613C18.5128 11.339 17.7876 11.339 17.1429 11.6613L10.5349 15.5299C9.89021 15.8523 9.56787 16.497 9.56787 17.1418V24.7177C9.56787 25.3625 9.89021 26.0072 10.5349 26.4102L17.0623 30.1982C17.6264 30.5206 18.3517 30.5206 18.9964 30.1982L23.4286 27.6191L26.4908 25.846L30.923 23.267C31.4871 22.9446 32.2124 22.9446 32.857 23.267L36.3222 25.2819C36.8863 25.6043 37.2892 26.249 37.2892 26.9744V31.0041C37.2892 31.6489 36.9669 32.2936 36.3222 32.6966L32.9376 34.7115C32.3735 35.0339 31.6483 35.0339 31.0036 34.7115L27.5384 32.6966C26.9743 32.3742 26.5714 31.7295 26.5714 31.0041V28.4251L23.5091 30.1982V32.8578C23.5091 33.5026 23.8315 34.1473 24.4762 34.5503L31.0036 38.3383C31.5677 38.6606 32.2929 38.6606 32.9376 38.3383L39.465 34.5503C40.0291 34.2279 40.4321 33.5832 40.4321 32.8578V25.2013C40.4321 24.5565 40.1097 23.9118 39.465 23.5088L32.9376 19.7208Z" fill="white"/>
</svg>
